<svg xmlns="http://www.w3.org/2000/svg" version="1.1" xmlns:xlink="http://www.w3.org/1999/xlink" xmlns:svgjs="http://svgjs.dev/svgjs" width="1000" height="1000" viewBox="0 0 1000 1000"><rect width="1000" height="1000" fill="#ffffff"></rect><g transform="matrix(0.7,0,0,0.7,149.5757702564233,402.37376951433225)"><svg viewBox="0 0 396 111" data-background-color="#161618" preserveAspectRatio="xMidYMid meet" height="280" width="1000" xmlns="http://www.w3.org/2000/svg" xmlns:xlink="http://www.w3.org/1999/xlink"><g id="tight-bounds" transform="matrix(1,0,0,1,0.2399928263662332,-0.21167559230042343)"><svg viewBox="0 0 395.52 111.42335118460085" height="111.42335118460085" width="395.52"><g><svg viewBox="0 0 590.7915372680377 166.43399305700538" height="111.42335118460085" width="395.52"><g><rect width="7.40233658665846" height="166.43399305700538" x="168.491356213687" y="0" fill="#000000" opacity="1" stroke-width="0" stroke="transparent" fill-opacity="1" class="rect-o-0" data-fill-palette-color="primary" rx="1%" id="o-0" data-palette-color="#ffffff"></rect></g><g transform="matrix(1,0,0,1,195.27153726803778,13.869499421417117)"><svg viewBox="0 0 395.52 138.69499421417115" height="138.69499421417115" width="395.52"><g id="textblocktransform"><svg viewBox="0 0 395.52 138.69499421417115" height="138.69499421417115" width="395.52" id="textblock"><g><svg viewBox="0 0 395.52 82.0830769230769" height="82.0830769230769" width="395.52"><g transform="matrix(1,0,0,1,0,0)"><svg width="395.52" viewBox="2.8499999046325684 -38.75 249.57998657226562 51.79999923706055" height="82.0830769230769" data-palette-color="#ffffff"><path d="M13.6-3Q13.2-1.25 12.38-0.3 11.55 0.65 9.7 0.65L9.7 0.65Q8.15 0.65 7.43 0.13 6.7-0.4 6.7-1.65L6.7-1.65Q6.7-2.2 6.85-2.7L6.85-2.7 12.95-26.9Q12.9-26.9 9.7-26.55L9.7-26.55Q5.85-26.25 4.9-26.05L4.9-26.05Q3.9-26.4 3.38-27.13 2.85-27.85 2.85-28.85L2.85-28.85Q2.85-29.65 3.43-30.38 4-31.1 4.8-31.45L4.8-31.45Q7.3-31.95 11.8-32.3 16.3-32.65 23.35-33.05L23.35-33.05Q26.95-33.2 28.2-33.35L28.2-33.35Q29-33 29.58-32.27 30.15-31.55 30.15-30.75L30.15-30.75Q30.15-29.85 29.25-29 28.35-28.15 27.2-27.8L27.2-27.8 18.45-27.35Q19-27.15 19-26L19-26Q19-25.4 18.9-25.1L18.9-25.1Q18.05-21.3 16.57-15.25 15.1-9.2 14.6-7.05L14.6-7.05Q14.3-5.8 14.05-4.8 13.8-3.8 13.6-3L13.6-3ZM47.9-2.6Q48-1.3 48.25-0.25L48.25-0.25Q48.15 0.05 47.37 0.35 46.6 0.65 46.05 0.65L46.05 0.65Q44.25 0.65 43.47 0.13 42.7-0.4 42.7-1.45L42.7-1.45Q42.7-2.45 42.9-3.45L42.9-3.45Q41.8-1.95 39.67-0.98 37.55 0 36.25 0L36.25 0Q32.9 0 30.67-1.95 28.45-3.9 28.45-8.2L28.45-8.2Q28.45-12.25 30.37-15.83 32.3-19.4 35.7-21.58 39.1-23.75 43.25-23.75L43.25-23.75Q44.05-23.75 45.35-23.33 46.65-22.9 47.97-21.88 49.3-20.85 50.2-19.25L50.2-19.25Q50.6-19.25 51.15-18.85 51.7-18.45 51.7-18.05L51.7-18.05Q51.7-17.6 51.55-17.15L51.55-17.15 47.9-2.6ZM45.65-16.6Q45.35-17.7 44.47-18.45 43.6-19.2 42.9-19.2L42.9-19.2Q40.6-19.2 38.57-17.57 36.55-15.95 35.3-13.55 34.05-11.15 34.05-9L34.05-9Q34.05-6.9 34.55-5.55 35.05-4.2 36.5-4.2L36.5-4.2Q37.75-4.2 39.37-4.95 41-5.7 42.27-6.98 43.55-8.25 43.95-9.65L43.95-9.65 45.65-16.6ZM70.4-19.35Q69.8-19.65 68.9-19.65L68.9-19.65Q66.65-19.65 64.4-18.75 62.15-17.85 62.15-16.45L62.15-16.45Q62.15-15.45 63.05-14.85 63.95-14.25 65.9-13.5L65.9-13.5Q68-12.65 69.3-11.9 70.59-11.15 71.57-9.73 72.55-8.3 72.55-6.1L72.55-6.1Q72.55-2.5 69.57-0.58 66.59 1.35 61.6 1.35L61.6 1.35Q59.15 1.35 57.05 0.6 54.95-0.15 53.72-1.33 52.5-2.5 52.4-3.65L52.4-3.65Q52.4-4.85 53.45-5.63 54.5-6.4 56.4-6.65L56.4-6.65Q56.45-5.65 57.45-4.78 58.45-3.9 59.82-3.38 61.2-2.85 62.2-2.85L62.2-2.85Q63.9-2.85 65.3-3.78 66.7-4.7 66.7-5.95L66.7-5.95Q66.7-8.25 62.25-9.6L62.25-9.6Q59.4-10.45 57.87-12.3 56.35-14.15 56.35-16.2L56.35-16.2Q56.35-20.25 60.02-22.03 63.7-23.8 69.4-23.8L69.4-23.8Q72.59-23.8 74.34-23.05 76.09-22.3 76.09-20.45L76.09-20.45Q76.09-19.2 75.17-18.25 74.25-17.3 72.55-17.3L72.55-17.3Q71.05-17.3 70.62-17.53 70.2-17.75 70.15-18.3L70.15-18.3Q70.15-18.8 70.4-19.35L70.4-19.35ZM101.79-22.4Q101.99-22.1 102.32-21.28 102.64-20.45 102.64-20L102.64-20Q102.64-19.75 102.59-19.7L102.59-19.7Q102.34-19.4 101.44-19.2 100.54-19 100.24-18.95L100.24-18.95Q98.69-17.95 95.32-15.78 91.94-13.6 90.39-12.6L90.39-12.6Q90.49-11.4 92.19-8.93 93.89-6.45 95.84-4.25 97.79-2.05 98.19-2.05L98.19-2.05Q98.64-2.05 99.32-1.3 99.99-0.55 99.99 0.05L99.99 0.05Q99.99 0.6 99.29 0.75L99.29 0.75Q98.84 0.85 97.62 1.1 96.39 1.35 95.49 1.35L95.49 1.35Q94.69 1.35 94.24 1.15L94.24 1.15Q93.09 0.75 91.12-1.53 89.14-3.8 87.34-6.63 85.54-9.45 84.99-11.5L84.99-11.5Q83.39-5.05 82.74-2.68 82.09-0.3 81.69 0.43 81.29 1.15 80.74 1.15L80.74 1.15 79.34 1.2Q76.04 1.2 75.89-1.45L75.89-1.45Q76.89-3.9 77.29-5.5L77.29-5.5Q82.24-23.85 84.34-33.15L84.34-33.15Q84.29-33.9 84.24-35.23 84.19-36.55 84.19-37.3L84.19-37.3Q84.34-37.95 85.32-38.35 86.29-38.75 87.09-38.75L87.09-38.75Q88.34-38.75 89.74-37.9 91.14-37.05 91.19-35.85L91.19-35.85 86.74-18.4 85.89-14.95Q86.94-16.25 89.47-18.15 91.99-20.05 94.67-21.55 97.34-23.05 98.94-23.35L98.94-23.35Q99.34-23.35 100.42-23.1 101.49-22.85 101.79-22.4L101.79-22.4ZM138.14-17.15Q141.49-16.6 142.61-14.83 143.74-13.05 143.74-10.65L143.74-10.65Q143.74-10.15 143.69-9.9L143.69-9.9Q142.74-3.8 138.59-1.23 134.44 1.35 128.79 1.35L128.79 1.35Q127.34 1.35 125.66 1.03 123.99 0.7 122.94 0.1L122.94 0.1Q122.19 0.65 120.14 0.65L120.14 0.65Q118.79 0.65 118.24-0.43 117.69-1.5 117.69-3.05L117.69-3.05Q117.69-3.6 117.84-4.1L117.84-4.1 123.44-26.5Q119.89-25.3 119.04-24L119.04-24Q117.49-25.65 117.49-27.05L117.49-27.05Q117.49-28.15 118.34-29.3L118.34-29.3Q120.34-30.6 124.84-31.75L124.84-31.75Q125.24-32.8 125.86-33.2 126.49-33.6 127.74-33.6L127.74-33.6Q128.79-33.6 129.71-33.4 130.64-33.2 131.04-32.8L131.04-32.8Q133.44-33.1 135.89-33.1L135.89-33.1Q140.99-33.1 143.39-31.08 145.79-29.05 145.79-25.45L145.79-25.45Q145.79-22.4 143.64-20.23 141.49-18.05 138.14-17.15L138.14-17.15ZM127.99-18.45Q138.94-19.35 138.94-24.85L138.94-24.85Q138.94-26.4 137.99-27.28 137.04-28.15 134.74-28.15L134.74-28.15Q132.69-28.15 130.19-27.9L130.19-27.9 127.99-18.45ZM128.14-3.5Q130.39-3.5 132.51-4.33 134.64-5.15 135.99-6.68 137.34-8.2 137.34-10.25L137.34-10.25Q137.34-11.95 136.16-13.18 134.99-14.4 132.89-14.4L132.89-14.4Q128.94-14.4 127.19-14.1L127.19-14.1Q126.39-11.4 124.54-4.1L124.54-4.1Q126.14-3.5 128.14-3.5L128.14-3.5ZM167.94-0.15Q167.74 0.7 167.04 1.03 166.34 1.35 165.19 1.35L165.19 1.35Q161.74 1.35 161.74-0.2L161.74-0.2 162.04-2.1Q160.64-1.05 158.74 0 156.84 1.05 155.59 1.05L155.59 1.05Q148.19 1.05 148.19-3.8L148.19-3.8Q148.19-12.05 153.14-21.7L153.14-21.7Q153.74-22.85 154.41-23.35 155.09-23.85 156.74-23.85L156.74-23.85Q158.49-23.85 159.36-23.38 160.24-22.9 160.24-22.25L160.24-22.25Q160.24-22.1 159.69-21.35L159.69-21.35Q159.14-20.7 158.74-20.05L158.74-20.05Q154.04-12.2 154.04-4.75L154.04-4.75Q154.04-4.1 154.54-3.6 155.04-3.1 155.44-3.1L155.44-3.1Q156.54-3.1 159.16-4.15 161.79-5.2 163.19-6.3L163.19-6.3 164.19-10.35Q165.99-17.6 166.44-19.25L166.44-19.25Q166.99-21.25 167.86-22.53 168.74-23.8 170.64-23.8L170.64-23.8Q173.29-23.8 173.29-22.2L173.29-22.2Q173.29-21.95 173.16-21.58 173.04-21.2 172.99-20.95L172.99-20.95 170.99-12.85Q168.59-3.2 167.94-0.15L167.94-0.15ZM196.88-37.05Q197.08-37.8 198.06-38.27 199.03-38.75 200.13-38.75L200.13-38.75Q201.03-38.75 202.08-38.35 203.13-37.95 203.13-37.2L203.13-37.2 199.98-24.9Q195.83-8.75 195.13-5.2L195.13-5.2Q194.83-3.7 194.83-2.9L194.83-2.9Q194.83-1.55 195.13-0.25L195.13-0.25Q195.03 0.05 194.36 0.35 193.68 0.65 193.13 0.65L193.13 0.65Q192.13 0.65 190.93 0.4 189.73 0.15 189.43-0.15L189.43-0.15Q188.98-0.55 188.98-1.75L188.98-1.75Q188.98-2.65 189.18-3.45L189.18-3.45Q188.13-1.95 186.01-0.98 183.88 0 182.58 0L182.58 0Q174.93 0 174.93-8.25L174.93-8.25Q174.93-11.85 176.56-15.45 178.18-19.05 181.21-21.4 184.23-23.75 188.23-23.75L188.23-23.75Q189.33-23.75 190.68-22.88 192.03-22 192.88-20.9L192.88-20.9Q193.98-25.55 194.83-28.65L194.83-28.65Q195.23-30.3 195.76-32.43 196.28-34.55 196.88-37.05L196.88-37.05ZM191.78-16.25Q191.48-17.35 190.36-18.28 189.23-19.2 188.53-19.2L188.53-19.2Q186.23-19.2 184.23-17.7 182.23-16.2 181.06-13.8 179.88-11.4 179.88-8.85L179.88-8.85Q179.88-6.95 180.58-5.45 181.28-3.95 182.73-3.95L182.73-3.95Q183.98-3.95 185.66-4.78 187.33-5.6 188.63-6.93 189.93-8.25 190.23-9.65L190.23-9.65 191.78-16.25ZM223.23-37.05Q223.43-37.8 224.41-38.27 225.38-38.75 226.48-38.75L226.48-38.75Q227.38-38.75 228.43-38.35 229.48-37.95 229.48-37.2L229.48-37.2 226.33-24.9Q222.18-8.75 221.48-5.2L221.48-5.2Q221.18-3.7 221.18-2.9L221.18-2.9Q221.18-1.55 221.48-0.25L221.48-0.25Q221.38 0.05 220.71 0.35 220.03 0.65 219.48 0.65L219.48 0.65Q218.48 0.65 217.28 0.4 216.08 0.15 215.78-0.15L215.78-0.15Q215.33-0.55 215.33-1.75L215.33-1.75Q215.33-2.65 215.53-3.45L215.53-3.45Q214.48-1.95 212.36-0.98 210.23 0 208.93 0L208.93 0Q201.28 0 201.28-8.25L201.28-8.25Q201.28-11.85 202.91-15.45 204.53-19.05 207.56-21.4 210.58-23.75 214.58-23.75L214.58-23.75Q215.68-23.75 217.03-22.88 218.38-22 219.23-20.9L219.23-20.9Q220.33-25.55 221.18-28.65L221.18-28.65Q221.58-30.3 222.11-32.43 222.63-34.55 223.23-37.05L223.23-37.05ZM218.13-16.25Q217.83-17.35 216.71-18.28 215.58-19.2 214.88-19.2L214.88-19.2Q212.58-19.2 210.58-17.7 208.58-16.2 207.41-13.8 206.23-11.4 206.23-8.85L206.23-8.85Q206.23-6.95 206.93-5.45 207.63-3.95 209.08-3.95L209.08-3.95Q210.33-3.95 212.01-4.78 213.68-5.6 214.98-6.93 216.28-8.25 216.58-9.65L216.58-9.65 218.13-16.25ZM241.48-2.1Q239.78-0.5 238.18 0.28 236.58 1.05 234.58 1.05L234.58 1.05Q231.28 1.05 229.5-1 227.73-3.05 227.73-6.45L227.73-6.45Q227.73-7.45 228.03-8.65L228.03-8.65 231.38-21.7Q231.68-22.8 232.45-23.33 233.23-23.85 234.98-23.85L234.98-23.85Q237.58-23.85 237.58-22.4L237.58-22.4Q237.58-21.8 237.23-20.5L237.23-20.5 233.88-7.1Q233.73-6.5 233.73-5.9L233.73-5.9Q233.73-4.85 234.28-4.2 234.83-3.55 236.03-3.55L236.03-3.55Q237.58-3.55 239.38-4.45 241.18-5.35 242.43-6.65L242.43-6.65 243.38-10.6Q244.33-14.6 245.58-19.25L245.58-19.25Q246.13-21.25 247-22.53 247.88-23.8 249.78-23.8L249.78-23.8Q252.43-23.8 252.43-22.2L252.43-22.2Q252.43-21.95 252.3-21.58 252.18-21.2 252.13-20.95L252.13-20.95 250.48-14.1Q247.88-3.2 247.08-0.15L247.08-0.15Q245.78 4.85 244.13 7.7 242.48 10.55 240 11.8 237.53 13.05 233.68 13.05L233.68 13.05Q231.23 13.05 229.65 12.35 228.08 11.65 227.35 10.65 226.63 9.65 226.63 8.8L226.63 8.8Q226.63 6.35 229.33 6.35L229.33 6.35Q230.08 6.35 230.55 6.65 231.03 6.95 231.53 7.5L231.53 7.5Q232.28 8.2 232.9 8.55 233.53 8.9 234.63 8.9L234.63 8.9Q235.48 8.9 236.53 8.2 237.58 7.5 238.58 6 239.58 4.5 240.23 2.25L240.23 2.25 241.48-2.1Z" opacity="1" transform="matrix(1,0,0,1,0,0)" fill="#000000" class="undefined-text-0" data-fill-palette-color="primary" id="text-0"></path></svg></g></svg></g><g transform="matrix(1,0,0,1,0,101.4609213907692)"><svg viewBox="0 0 232.209792 37.234072823401945" height="37.234072823401945" width="232.209792"><g transform="matrix(1,0,0,1,0,0)"><svg width="232.209792" viewBox="0 -38.75 323.0199890136719 51.79999923706055" height="37.234072823401945" data-palette-color="#ffffff"><path d="M6.6-2.3Q6.3-1.6 6.15-1.05L6.15-1.05Q5.7 0.1 5.35 0.63 5 1.15 4.25 1.15L4.25 1.15 2.85 1.2Q1.6 1.2 0.85 0.68 0.1 0.15 0-1.45L0-1.45Q0.05-1.5 0.5-2.58 0.95-3.65 1.4-5.5L1.4-5.5Q2-7.95 2.6-10.35 3.2-12.75 3.75-15L3.75-15Q4.5-17.95 5.95-23.83 7.4-29.7 8.2-33.15L8.2-33.15Q8.15-33.9 8.1-35.23 8.05-36.55 8.05-37.3L8.05-37.3Q8.2-37.95 9.18-38.35 10.15-38.75 10.95-38.75L10.95-38.75Q12.2-38.75 13.55-37.9 14.9-37.05 14.95-35.85L14.95-35.85 11.2-21.05Q12.55-22.6 14.48-23.23 16.4-23.85 18.05-23.85L18.05-23.85Q20.4-23.85 22.28-22.5 24.15-21.15 25.23-18.93 26.3-16.7 26.3-14.25L26.3-14.25Q26.3-10.65 24.6-7.18 22.9-3.7 19.65-1.48 16.4 0.75 12.05 0.75L12.05 0.75Q10.8 0.75 8.97-0.15 7.15-1.05 6.6-2.3L6.6-2.3ZM7.8-6.45Q8.45-5.3 9.75-4.4 11.05-3.5 12.1-3.5L12.1-3.5Q14.45-3.5 16.4-5.58 18.35-7.65 19.5-10.53 20.65-13.4 20.65-15.7L20.65-15.7Q20.65-17.3 19.8-18.35 18.95-19.4 17.3-19.4L17.3-19.4Q15.85-19.4 14.2-18.75 12.55-18.1 11.28-16.88 10-15.65 9.55-14.05L9.55-14.05 7.8-6.45ZM42.45-2.1Q40.75-0.5 39.15 0.28 37.55 1.05 35.55 1.05L35.55 1.05Q32.25 1.05 30.47-1 28.7-3.05 28.7-6.45L28.7-6.45Q28.7-7.45 29-8.65L29-8.65 32.35-21.7Q32.65-22.8 33.42-23.33 34.2-23.85 35.95-23.85L35.95-23.85Q38.55-23.85 38.55-22.4L38.55-22.4Q38.55-21.8 38.2-20.5L38.2-20.5 34.85-7.1Q34.7-6.5 34.7-5.9L34.7-5.9Q34.7-4.85 35.25-4.2 35.8-3.55 37-3.55L37-3.55Q38.55-3.55 40.35-4.45 42.15-5.35 43.4-6.65L43.4-6.65 44.35-10.6Q45.3-14.6 46.55-19.25L46.55-19.25Q47.1-21.25 47.97-22.53 48.85-23.8 50.75-23.8L50.75-23.8Q53.4-23.8 53.4-22.2L53.4-22.2Q53.4-21.95 53.27-21.58 53.15-21.2 53.1-20.95L53.1-20.95 51.45-14.1Q48.85-3.2 48.05-0.15L48.05-0.15Q46.75 4.85 45.1 7.7 43.45 10.55 40.97 11.8 38.5 13.05 34.65 13.05L34.65 13.05Q32.2 13.05 30.62 12.35 29.05 11.65 28.32 10.65 27.6 9.65 27.6 8.8L27.6 8.8Q27.6 6.35 30.3 6.35L30.3 6.35Q31.05 6.35 31.52 6.65 32 6.95 32.5 7.5L32.5 7.5Q33.25 8.2 33.87 8.55 34.5 8.9 35.6 8.9L35.6 8.9Q36.45 8.9 37.5 8.2 38.55 7.5 39.55 6 40.55 4.5 41.2 2.25L41.2 2.25 42.45-2.1ZM94.84-33.8Q96.64-32.85 96.64-31.4L96.64-31.4Q96.64-30.5 95.67-29.73 94.69-28.95 93.49-28.65L93.49-28.65 91.29-28.5Q89.79-28.4 87.24-28.23 84.69-28.05 81.24-27.75L81.24-27.75 78.99-18.8Q82.14-19.3 84.22-19.6 86.29-19.9 88.84-20.1L88.84-20.1Q90.79-19.25 90.79-17.8L90.79-17.8Q90.79-16.9 89.89-16.05 88.99-15.2 87.84-14.85L87.84-14.85 84.99-14.55Q80.44-14.05 77.69-13.55L77.69-13.55Q77.09-10.8 75.99-6.6L75.99-6.6 75.59-5.05Q82.24-6.3 88.44-6.8L88.44-6.8Q90.39-5.95 90.39-4.5L90.39-4.5Q90.39-3.6 89.49-2.75 88.59-1.9 87.44-1.55L87.44-1.55Q77.94-0.45 74.04 0.3L74.04 0.3Q73.59 0.6 72.09 0.6L72.09 0.6Q70.69 0.6 69.62-0.7 68.54-2 68.54-3.4L68.54-3.4Q68.54-3.95 68.69-4.45L68.69-4.45 74.39-27 74.24-27Q74.19-27.55 73.54-28.35L73.54-28.35Q73.49-28.45 73.14-28.98 72.79-29.5 72.79-30L72.79-30Q72.89-31.45 74.69-32.3L74.69-32.3Q78.44-32.8 85.19-33.27 91.94-33.75 94.84-33.8L94.84-33.8ZM109.29-35.85L107.19-27.2Q101.54-3.45 100.54-0.05L100.54-0.05Q100.44 0.25 99.52 0.73 98.59 1.2 98.24 1.2L98.24 1.2Q96.84 1.2 95.54 0.5 94.24-0.2 94.14-1.75L94.14-1.75Q94.19-1.85 94.64-2.8 95.09-3.75 95.54-5.5L95.54-5.5Q96.69-9.8 98.17-15.7 99.64-21.6 100.14-23.6L100.14-23.6 102.49-33.15Q102.44-33.55 102.44-37.3L102.44-37.3Q102.59-37.95 103.57-38.35 104.54-38.75 105.34-38.75L105.34-38.75Q106.59-38.75 107.92-37.9 109.24-37.05 109.29-35.85L109.29-35.85ZM115.14-29.7Q115.14-31.25 116.11-32.45 117.09-33.65 118.84-33.65L118.84-33.65Q120.69-33.65 122.06-32.5 123.44-31.35 123.44-29.9L123.44-29.9Q123.44-28.45 122.04-27.4 120.64-26.35 118.79-26.35L118.79-26.35Q116.99-26.35 116.06-27.28 115.14-28.2 115.14-29.7L115.14-29.7ZM120.39-20.85Q117.74-10.05 116.34-4.6L116.34-4.6Q116.14-3.8 116.14-2.85L116.14-2.85 116.19-1.45Q116.19-0.6 115.66-0.25 115.14 0.1 113.44 0.15L113.44 0.15Q111.79 0.15 110.94-0.2 110.09-0.55 110.09-1.7L110.09-1.7Q110.09-2.25 111.36-7.55 112.64-12.85 114.84-21.35L114.84-21.35 113.69-22.85Q113.54-23 113.54-23.2L113.54-23.2Q113.54-23.7 114.64-24.03 115.74-24.35 117.69-24.35L117.69-24.35Q119.39-24.35 119.86-23.38 120.34-22.4 120.39-20.85L120.39-20.85ZM157.88-17.15Q161.23-16.6 162.36-14.83 163.48-13.05 163.48-10.65L163.48-10.65Q163.48-10.15 163.43-9.9L163.43-9.9Q162.48-3.8 158.33-1.23 154.18 1.35 148.53 1.35L148.53 1.35Q147.08 1.35 145.41 1.03 143.73 0.7 142.68 0.1L142.68 0.1Q141.93 0.65 139.88 0.65L139.88 0.65Q138.53 0.65 137.98-0.43 137.43-1.5 137.43-3.05L137.43-3.05Q137.43-3.6 137.58-4.1L137.58-4.1 143.18-26.5Q139.63-25.3 138.78-24L138.78-24Q137.23-25.65 137.23-27.05L137.23-27.05Q137.23-28.15 138.08-29.3L138.08-29.3Q140.08-30.6 144.58-31.75L144.58-31.75Q144.98-32.8 145.61-33.2 146.23-33.6 147.48-33.6L147.48-33.6Q148.53-33.6 149.46-33.4 150.38-33.2 150.78-32.8L150.78-32.8Q153.18-33.1 155.63-33.1L155.63-33.1Q160.73-33.1 163.13-31.08 165.53-29.05 165.53-25.45L165.53-25.45Q165.53-22.4 163.38-20.23 161.23-18.05 157.88-17.15L157.88-17.15ZM147.73-18.45Q158.68-19.35 158.68-24.85L158.68-24.85Q158.68-26.4 157.73-27.28 156.78-28.15 154.48-28.15L154.48-28.15Q152.43-28.15 149.93-27.9L149.93-27.9 147.73-18.45ZM147.88-3.5Q150.13-3.5 152.26-4.33 154.38-5.15 155.73-6.68 157.08-8.2 157.08-10.25L157.08-10.25Q157.08-11.95 155.91-13.18 154.73-14.4 152.63-14.4L152.63-14.4Q148.68-14.4 146.93-14.1L146.93-14.1Q146.13-11.4 144.28-4.1L144.28-4.1Q145.88-3.5 147.88-3.5L147.88-3.5ZM186.83-2.6Q186.93-1.3 187.18-0.25L187.18-0.25Q187.08 0.05 186.31 0.35 185.53 0.65 184.98 0.65L184.98 0.65Q183.18 0.65 182.41 0.13 181.63-0.4 181.63-1.45L181.63-1.45Q181.63-2.45 181.83-3.45L181.83-3.45Q180.73-1.95 178.61-0.98 176.48 0 175.18 0L175.18 0Q171.83 0 169.61-1.95 167.38-3.9 167.38-8.2L167.38-8.2Q167.38-12.25 169.31-15.83 171.23-19.4 174.63-21.58 178.03-23.75 182.18-23.75L182.18-23.75Q182.98-23.75 184.28-23.33 185.58-22.9 186.91-21.88 188.23-20.85 189.13-19.25L189.13-19.25Q189.53-19.25 190.08-18.85 190.63-18.45 190.63-18.05L190.63-18.05Q190.63-17.6 190.48-17.15L190.48-17.15 186.83-2.6ZM184.58-16.6Q184.28-17.7 183.41-18.45 182.53-19.2 181.83-19.2L181.83-19.2Q179.53-19.2 177.51-17.57 175.48-15.95 174.23-13.55 172.98-11.15 172.98-9L172.98-9Q172.98-6.9 173.48-5.55 173.98-4.2 175.43-4.2L175.43-4.2Q176.68-4.2 178.31-4.95 179.93-5.7 181.21-6.98 182.48-8.25 182.88-9.65L182.88-9.65 184.58-16.6ZM212.78-0.15Q212.58 0.7 211.88 1.03 211.18 1.35 210.03 1.35L210.03 1.35Q206.58 1.35 206.58-0.2L206.58-0.2 206.88-2.1Q205.48-1.05 203.58 0 201.68 1.05 200.43 1.05L200.43 1.05Q193.03 1.05 193.03-3.8L193.03-3.8Q193.03-12.05 197.98-21.7L197.98-21.7Q198.58-22.85 199.25-23.35 199.93-23.85 201.58-23.85L201.58-23.85Q203.33-23.85 204.2-23.38 205.08-22.9 205.08-22.25L205.08-22.25Q205.08-22.1 204.53-21.35L204.53-21.35Q203.98-20.7 203.58-20.05L203.58-20.05Q198.88-12.2 198.88-4.75L198.88-4.75Q198.88-4.1 199.38-3.6 199.88-3.1 200.28-3.1L200.28-3.1Q201.38-3.1 204-4.15 206.63-5.2 208.03-6.3L208.03-6.3 209.03-10.35Q210.83-17.6 211.28-19.25L211.28-19.25Q211.83-21.25 212.7-22.53 213.58-23.8 215.48-23.8L215.48-23.8Q218.13-23.8 218.13-22.2L218.13-22.2Q218.13-21.95 218-21.58 217.88-21.2 217.83-20.95L217.83-20.95 215.83-12.85Q213.43-3.2 212.78-0.15L212.78-0.15ZM230.13-18.1L226.98-5.5Q226.98-4.35 227.58-3.68 228.18-3 229.28-3L229.28-3Q230.78-3 231.75-3.88 232.73-4.75 233.83-6.35L233.83-6.35Q234.63-7.5 235.13-8 235.63-8.5 236.28-8.5L236.28-8.5Q237.58-8.5 238.13-8.18 238.68-7.85 238.68-6.85L238.68-6.85Q238.68-6.4 238.58-5.78 238.48-5.15 238.33-4.85L238.33-4.85Q237.13-2.3 234.4-0.45 231.68 1.4 228.23 1.4L228.23 1.4Q224.78 1.4 223.03-0.28 221.28-1.95 221.28-5.05L221.28-5.05Q221.28-5.5 221.73-7.4 222.18-9.3 222.88-11.95L222.88-11.95 224.28-17.65 221.23-17.4Q220.63-17.4 220.33-17.85 220.03-18.3 220.03-18.95L220.03-18.95Q220.03-20.2 220.93-21.45L220.93-21.45Q221.03-21.6 221.93-21.75 222.83-21.9 224.13-22.05L224.13-22.05 225.48-22.2 227.18-29.5Q227.68-30.8 228.7-31.53 229.73-32.25 230.63-32.25L230.63-32.25Q231.63-32.25 232.33-31.65 233.03-31.05 233.08-30.25L233.08-30.25 231.28-22.75Q233.23-23 234.9-23.18 236.58-23.35 237.53-23.35L237.53-23.35Q239.43-23.35 239.43-21.15L239.43-21.15Q239.43-20.3 238.7-19.63 237.98-18.95 237.13-18.8L237.13-18.8 230.13-18.1ZM247.22-29.7Q247.22-31.25 248.2-32.45 249.17-33.65 250.92-33.65L250.92-33.65Q252.77-33.65 254.15-32.5 255.52-31.35 255.52-29.9L255.52-29.9Q255.52-28.45 254.12-27.4 252.72-26.35 250.87-26.35L250.87-26.35Q249.07-26.35 248.15-27.28 247.22-28.2 247.22-29.7L247.22-29.7ZM252.47-20.85Q249.82-10.05 248.42-4.6L248.42-4.6Q248.22-3.8 248.22-2.85L248.22-2.85 248.27-1.45Q248.27-0.6 247.75-0.25 247.22 0.1 245.52 0.15L245.52 0.15Q243.87 0.15 243.02-0.2 242.17-0.55 242.17-1.7L242.17-1.7Q242.17-2.25 243.45-7.55 244.72-12.85 246.92-21.35L246.92-21.35 245.77-22.85Q245.62-23 245.62-23.2L245.62-23.2Q245.62-23.7 246.72-24.03 247.82-24.35 249.77-24.35L249.77-24.35Q251.47-24.35 251.95-23.38 252.42-22.4 252.47-20.85L252.47-20.85ZM271.77-19.35Q271.17-19.65 270.27-19.65L270.27-19.65Q268.02-19.65 265.77-18.75 263.52-17.85 263.52-16.45L263.52-16.45Q263.52-15.45 264.42-14.85 265.32-14.25 267.27-13.5L267.27-13.5Q269.37-12.65 270.67-11.9 271.97-11.15 272.95-9.73 273.92-8.3 273.92-6.1L273.92-6.1Q273.92-2.5 270.95-0.58 267.97 1.35 262.97 1.35L262.97 1.35Q260.52 1.35 258.42 0.6 256.32-0.15 255.1-1.33 253.87-2.5 253.77-3.65L253.77-3.65Q253.77-4.85 254.82-5.63 255.87-6.4 257.77-6.65L257.77-6.65Q257.82-5.65 258.82-4.78 259.82-3.9 261.2-3.38 262.57-2.85 263.57-2.85L263.57-2.85Q265.27-2.85 266.67-3.78 268.07-4.7 268.07-5.95L268.07-5.95Q268.07-8.25 263.62-9.6L263.62-9.6Q260.77-10.45 259.25-12.3 257.72-14.15 257.72-16.2L257.72-16.2Q257.72-20.25 261.4-22.03 265.07-23.8 270.77-23.8L270.77-23.8Q273.97-23.8 275.72-23.05 277.47-22.3 277.47-20.45L277.47-20.45Q277.47-19.2 276.55-18.25 275.62-17.3 273.92-17.3L273.92-17.3Q272.42-17.3 272-17.53 271.57-17.75 271.52-18.3L271.52-18.3Q271.52-18.8 271.77-19.35L271.77-19.35ZM288.77-18.1L285.62-5.5Q285.62-4.35 286.22-3.68 286.82-3 287.92-3L287.92-3Q289.42-3 290.39-3.88 291.37-4.75 292.47-6.35L292.47-6.35Q293.27-7.5 293.77-8 294.27-8.5 294.92-8.5L294.92-8.5Q296.22-8.5 296.77-8.18 297.32-7.85 297.32-6.85L297.32-6.85Q297.32-6.4 297.22-5.78 297.12-5.15 296.97-4.85L296.97-4.85Q295.77-2.3 293.04-0.45 290.32 1.4 286.87 1.4L286.87 1.4Q283.42 1.4 281.67-0.28 279.92-1.95 279.92-5.05L279.92-5.05Q279.92-5.5 280.37-7.4 280.82-9.3 281.52-11.95L281.52-11.95 282.92-17.65 279.87-17.4Q279.27-17.4 278.97-17.85 278.67-18.3 278.67-18.95L278.67-18.95Q278.67-20.2 279.57-21.45L279.57-21.45Q279.67-21.6 280.57-21.75 281.47-21.9 282.77-22.05L282.77-22.05 284.12-22.2 285.82-29.5Q286.32-30.8 287.34-31.53 288.37-32.25 289.27-32.25L289.27-32.25Q290.27-32.25 290.97-31.65 291.67-31.05 291.72-30.25L291.72-30.25 289.92-22.75Q291.87-23 293.54-23.18 295.22-23.35 296.17-23.35L296.17-23.35Q298.07-23.35 298.07-21.15L298.07-21.15Q298.07-20.3 297.34-19.63 296.62-18.95 295.77-18.8L295.77-18.8 288.77-18.1ZM319.22-2.6Q319.32-1.3 319.57-0.25L319.57-0.25Q319.47 0.05 318.69 0.35 317.92 0.65 317.37 0.65L317.37 0.65Q315.57 0.65 314.79 0.13 314.02-0.4 314.02-1.45L314.02-1.45Q314.02-2.45 314.22-3.45L314.22-3.45Q313.12-1.95 310.99-0.98 308.87 0 307.57 0L307.57 0Q304.22 0 301.99-1.95 299.77-3.9 299.77-8.2L299.77-8.2Q299.77-12.25 301.69-15.83 303.62-19.4 307.02-21.58 310.42-23.75 314.57-23.75L314.57-23.75Q315.37-23.75 316.67-23.33 317.97-22.9 319.29-21.88 320.62-20.85 321.52-19.25L321.52-19.25Q321.92-19.25 322.47-18.85 323.02-18.45 323.02-18.05L323.02-18.05Q323.02-17.6 322.87-17.15L322.87-17.15 319.22-2.6ZM316.97-16.6Q316.67-17.7 315.79-18.45 314.92-19.2 314.22-19.2L314.22-19.2Q311.92-19.2 309.89-17.57 307.87-15.95 306.62-13.55 305.37-11.15 305.37-9L305.37-9Q305.37-6.9 305.87-5.55 306.37-4.2 307.82-4.2L307.82-4.2Q309.07-4.2 310.69-4.95 312.32-5.7 313.59-6.98 314.87-8.25 315.27-9.65L315.27-9.65 316.97-16.6Z" opacity="1" transform="matrix(1,0,0,1,0,0)" fill="#000000" class="undefined-text-1" data-fill-palette-color="secondary" id="text-1"></path></svg></g></svg></g></svg></g></svg></g><g transform="matrix(1,0,0,1,0,11.338315777008475)"><svg viewBox="0 0 149.11351174599469 143.75736150298843" height="143.75736150298843" width="149.11351174599469"><g><svg xmlns="http://www.w3.org/2000/svg" xmlns:xlink="http://www.w3.org/1999/xlink" version="1.1" x="0" y="0" viewBox="0 1.7960000038146973 100 96.40800476074219" enable-background="new 0 0 100 100" xml:space="preserve" height="143.75736150298843" width="149.11351174599469" class="icon-icon-0" data-fill-palette-color="accent" id="icon-0"><polygon points="66.744,76.101 66.744,90.788 7.416,90.788 7.416,9.212 66.744,9.212 66.744,23.668 74.16,16.252 74.16,1.796   0,1.796 0,98.204 74.16,98.204 74.16,68.685 " fill="#000000" data-fill-palette-color="accent"></polygon><polygon points="52.81,74.305 37.08,79.547 42.323,63.818 89.513,16.628 100,27.115 " fill="#000000" data-fill-palette-color="accent"></polygon></svg></g></svg></g></svg></g><defs></defs></svg><rect width="395.52" height="111.42335118460085" fill="none" stroke="none" visibility="hidden"></rect></g></svg></g></svg>